External Loads File
version=1
nRows=70
nColumns=13
Range=5.000000e-03-10 seconds
endheader
time 	forceRightX 	forceRightY 	forceRightZ 	pointRightX 	pointRightY 	pointRightZ 	forceLeftX 	forceLeftY 	forceLeftZ 	pointLeftX 	pointLeftY 	pointLeftZ 		
5.005000 49.048604 606.940959 -0.000000 0.333128 0.209523 -0.159439 0.138758 -58.364272 -0.000000 0.118128 0.441048 -0.399313
5.010000 62.739667 600.747839 -0.000000 0.326618 0.201806 -0.159191 -4.773779 -61.325348 -0.000000 0.124522 0.449332 -0.399198
5.015000 75.284877 593.736869 -0.000000 0.319656 0.194368 -0.158942 -9.809950 -63.620027 -0.000000 0.131346 0.457167 -0.399120
5.020000 86.782521 586.231529 -0.000000 0.312159 0.187387 -0.158678 -15.087804 -64.999462 -0.000000 0.138642 0.464495 -0.399200
5.025000 96.829685 578.464744 -0.000000 0.304313 0.181052 -0.158296 -20.619595 -65.122454 -0.000000 0.146331 0.471136 -0.399250
5.030000 106.013038 570.274233 -0.000000 0.296096 0.175026 -0.157876 -26.464833 -63.538723 -0.000000 0.154241 0.477290 -0.399180
5.035000 114.403076 561.325750 -0.000000 0.287563 0.169602 -0.157429 -32.551212 -59.804814 -0.000000 0.162443 0.482833 -0.399161
5.040000 122.399867 551.017826 -0.000000 0.278783 0.164679 -0.157079 -38.734483 -53.603046 -0.000000 0.170981 0.487780 -0.399181
5.045000 129.954406 538.679416 -0.000000 0.269738 0.160488 -0.156801 -44.704072 -44.929702 -0.000000 0.179674 0.492097 -0.399130
5.050000 137.437126 523.430656 -0.000000 0.260401 0.157071 -0.156558 -50.118678 -34.079957 -0.000000 0.188540 0.495788 -0.399159
5.055000 144.629883 504.512930 -0.000000 0.250879 0.154327 -0.156406 -54.601731 -21.619611 -0.000000 0.197418 0.498899 -0.399089
5.060000 151.309849 481.292872 -0.000000 0.241288 0.152250 -0.156360 -57.889983 -8.137126 -0.000000 0.206331 0.500989 -0.399455
5.065000 157.242977 453.335316 -0.000000 0.231479 0.150859 -0.156312 -59.888270 5.973056 -0.000000 0.215031 0.502797 -0.399242
5.070000 161.513618 420.682120 -0.000000 0.221927 0.150318 -0.156561 -60.681347 20.542093 -0.000000 0.223531 0.503864 -0.399227
5.075000 164.140782 383.359303 -0.000000 0.212376 0.150455 -0.156650 -60.475885 35.817658 -0.000000 0.231809 0.504159 -0.399246
5.080000 164.733200 341.894286 -0.000000 0.202879 0.151220 -0.156590 -59.599148 52.153236 -0.000000 0.239875 0.503706 -0.399383
5.085000 162.937374 297.195279 -0.000000 0.193569 0.152721 -0.156446 -58.522757 69.907936 -0.000000 0.247739 0.502348 -0.399557
5.090000 158.382619 250.586305 -0.000000 0.184465 0.155008 -0.156265 -57.901465 89.345100 -0.000000 0.255048 0.500179 -0.399550
5.095000 151.533898 203.236367 -0.000000 0.175569 0.157811 -0.156619 -58.262151 110.826160 -0.000000 0.262327 0.497128 -0.400085
5.100000 142.398561 156.846142 -0.000000 0.167023 0.161496 -0.156985 -60.331675 134.540474 -0.000000 0.269137 0.493059 -0.400518
5.105000 131.583852 112.855717 -0.000000 0.158728 0.165487 -0.157370 -64.563211 160.687841 -0.000000 0.275852 0.488255 -0.401086
5.110000 119.707103 72.636750 -0.000000 0.150551 0.170168 -0.157841 -71.224937 189.255056 -0.000000 0.282361 0.482673 -0.401541
5.115000 107.357346 37.406752 -0.000000 0.142774 0.175477 -0.158061 -80.501578 219.907348 -0.000000 0.288855 0.476568 -0.402039
5.120000 95.199149 7.927842 -0.000000 0.135276 0.181307 -0.158287 -92.172362 252.106510 -0.000000 0.295187 0.469690 -0.402356
5.125000 83.845971 -15.393687 -0.000000 0.128144 0.187577 -0.158282 -105.747743 285.095873 -0.000000 0.301535 0.462237 -0.402767
5.130000 73.862759 -32.491188 -0.000000 0.121289 0.194265 -0.158170 -120.617432 317.914365 -0.000000 0.307778 0.454352 -0.402898
5.135000 65.747888 -43.625135 -0.000000 0.114818 0.201295 -0.157904 -136.301085 349.427732 -0.000000 0.314028 0.446379 -0.402615
5.140000 59.819460 -49.432529 -0.000000 0.108729 0.208659 -0.157556 -152.148345 378.663493 -0.000000 0.320086 0.437970 -0.402400
5.145000 56.138310 -50.813939 -0.000000 0.103022 0.216561 -0.157256 -167.260080 405.082272 -0.000000 0.326015 0.428979 -0.402271
5.150000 54.691527 -48.630078 -0.000000 0.097789 0.224830 -0.156928 -181.944221 428.090219 -0.000000 0.331482 0.419710 -0.402081
5.155000 55.151211 -43.909560 -0.000000 0.092989 0.233541 -0.156750 -195.566425 447.903026 -0.000000 0.336758 0.410268 -0.402198
5.160000 57.097025 -37.588206 -0.000000 0.088653 0.242677 -0.156615 -207.609628 465.031273 -0.000000 0.341667 0.400421 -0.402578
5.165000 60.098872 -30.432853 -0.000000 0.084917 0.252027 -0.156576 -218.095305 479.939241 -0.000000 0.346385 0.390341 -0.402468
5.170000 63.683109 -23.148312 -0.000000 0.081751 0.261727 -0.156603 -226.789036 493.287419 -0.000000 0.350420 0.379991 -0.402585
5.175000 67.403859 -16.349956 -0.000000 0.079207 0.271653 -0.156606 -233.493633 505.759010 -0.000000 0.354005 0.369381 -0.402771
5.180000 70.854449 -10.484666 -0.000000 0.077227 0.281675 -0.156646 -238.542309 517.791073 -0.000000 0.357042 0.358637 -0.403011
5.185000 73.616628 -6.027130 -0.000000 0.075856 0.292123 -0.156751 -241.284394 530.215707 -0.000000 0.359648 0.347753 -0.402847
5.190000 75.322076 -3.174491 -0.000000 0.075158 0.302633 -0.156831 -242.335925 543.129960 -0.000000 0.361677 0.336766 -0.403210
5.195000 75.624073 -2.143689 -0.000000 0.075038 0.313372 -0.157059 -241.373141 556.811452 -0.000000 0.363045 0.325822 -0.403433
5.200000 74.235455 -3.000146 -0.000000 0.075742 0.324088 -0.157313 -238.414030 571.123264 -0.000000 0.363870 0.314885 -0.403382
5.205000 70.937768 -5.794112 -0.000000 0.076965 0.335020 -0.157395 -232.810142 586.021497 -0.000000 0.364081 0.304047 -0.403322
5.210000 65.617588 -10.345330 -0.000000 0.078833 0.345823 -0.157692 -224.844646 600.965609 -0.000000 0.363831 0.293226 -0.403633
5.215000 58.289184 -16.451996 -0.000000 0.081430 0.356655 -0.157997 -214.117716 615.619658 -0.000000 0.362680 0.282589 -0.403160
5.220000 49.088884 -23.848510 -0.000000 0.084781 0.367962 -0.158124 -199.694675 629.728429 -0.000000 0.361017 0.272190 -0.403053
5.225000 38.454878 -31.925085 -0.000000 0.088514 0.378215 -0.158368 -184.576973 641.790788 -0.000000 0.358702 0.261990 -0.402933
5.230000 26.716008 -40.557044 -0.000000 0.092977 0.388556 -0.158476 -166.157406 652.204679 -0.000000 0.355721 0.251956 -0.402792
5.235000 14.346750 -49.412135 -0.000000 0.097932 0.398663 -0.158632 -145.634239 660.345315 -0.000000 0.352157 0.242122 -0.402729
5.240000 1.750632 -58.285274 -0.000000 0.103545 0.408535 -0.158601 -123.617405 665.983889 -0.000000 0.347977 0.232748 -0.402524
5.245000 -10.705633 -67.010165 -0.000000 0.109372 0.417988 -0.158962 -100.841727 668.988350 -0.000000 0.343158 0.223623 -0.402431
5.250000 -22.775087 -75.420330 -0.000000 0.115693 0.427252 -0.159195 -77.293761 669.354530 -0.000000 0.337785 0.214978 -0.402292
5.255000 -34.257515 -83.303792 -0.000000 0.122417 0.436084 -0.159436 -53.269844 666.950400 -0.000000 0.331869 0.206599 -0.402266
5.260000 -44.966581 -90.383471 -0.000000 0.129453 0.444344 -0.159707 -29.429459 661.594928 -0.000000 0.325428 0.198647 -0.402284
5.265000 -55.013789 -96.130678 -0.000000 0.137553 0.452251 -0.159266 -4.447460 653.211594 -0.000000 0.318524 0.191151 -0.402312
5.270000 -63.838046 -100.306355 -0.000000 0.144824 0.459982 -0.160304 18.386079 641.690637 -0.000000 0.311209 0.184252 -0.402212
5.275000 -71.588155 -102.272718 -0.000000 0.152854 0.466797 -0.160737 40.800463 627.052344 -0.000000 0.303470 0.177892 -0.402118
5.280000 -78.096854 -101.608571 -0.000000 0.161252 0.472959 -0.161168 62.258795 609.208853 -0.000000 0.295404 0.172074 -0.401968
5.285000 -83.326023 -97.899617 -0.000000 0.170097 0.478842 -0.161462 83.011588 587.931194 -0.000000 0.287052 0.166754 -0.401876
5.290000 -86.905856 -91.189466 -0.000000 0.178690 0.484117 -0.161750 101.273764 563.233942 -0.000000 0.278436 0.162202 -0.401672
5.295000 -88.971173 -81.355466 -0.000000 0.187733 0.488807 -0.161873 117.996886 534.787197 -0.000000 0.269630 0.158366 -0.401498
5.300000 -89.426745 -68.782063 -0.000000 0.196734 0.492949 -0.162220 132.101518 502.660550 -0.000000 0.260758 0.155201 -0.401320
5.305000 -88.496380 -53.773384 -0.000000 0.205957 0.496466 -0.162548 143.899938 466.714125 -0.000000 0.251733 0.152726 -0.401144
5.310000 -86.308917 -36.920062 -0.000000 0.215009 0.499212 -0.162718 152.488166 427.269007 -0.000000 0.242694 0.150893 -0.400959
5.315000 -83.137016 -18.610522 -0.000000 0.224143 0.501467 -0.162979 158.101478 384.581066 -0.000000 0.233671 0.149812 -0.400818
5.320000 -79.162279 0.703933 -0.000000 0.233223 0.502970 -0.163351 160.488181 339.430803 -0.000000 0.224688 0.149386 -0.400671
5.325000 -74.581782 20.631425 -0.000000 0.242044 0.503779 -0.163707 159.537796 292.940286 -0.000000 0.215765 0.149741 -0.400487
5.330000 -69.647529 40.884294 -0.000000 0.250636 0.504028 -0.163978 155.506870 246.334120 -0.000000 0.206949 0.150749 -0.400326
5.335000 -64.697050 61.254588 -0.000000 0.258964 0.503397 -0.164203 148.783720 200.881738 -0.000000 0.198291 0.152450 -0.400159
5.340000 -60.182238 81.682967 -0.000000 0.266982 0.502213 -0.164389 139.825421 157.817723 -0.000000 0.189832 0.154715 -0.400065
5.345000 -56.498040 102.416887 -0.000000 0.274746 0.499897 -0.164653 129.358407 118.101493 -0.000000 0.181487 0.157634 -0.400007
5.350000 -54.113820 123.837402 -0.000000 0.282176 0.496878 -0.164632 117.914830 82.783791 -0.000000 0.173299 0.161022 -0.399980
